<svg width="16" height="16" viewBox="0 0 16 16" fill="none" xmlns="http://www.w3.org/2000/svg">
<path d="M7.98002 1.16699C9.0476 1.16699 9.9352 1.20429 10.6548 1.35156C11.3833 1.50069 11.984 1.77048 12.4351 2.26465C12.881 2.75309 13.1288 3.40507 13.271 4.21289C13.413 5.01925 13.4576 6.03177 13.4576 7.28613C13.4576 7.77022 13.4587 8.22503 13.4595 8.65137C13.4632 10.6677 13.4655 12.0539 13.3745 12.958C13.3203 13.4974 13.2267 13.9553 13.021 14.2842C12.9105 14.461 12.7635 14.6075 12.5728 14.7051C12.3856 14.8008 12.1878 14.833 11.9986 14.833C11.5662 14.833 11.1466 14.5955 10.8081 14.3604C10.4777 14.1307 10.1293 13.8329 9.80033 13.5518C9.77433 13.5295 9.74795 13.5073 9.72221 13.4854C9.35906 13.1754 9.01789 12.8889 8.69779 12.6787C8.36577 12.4608 8.13209 12.377 7.98002 12.377C7.82791 12.377 7.59427 12.4607 7.26225 12.6787C6.9421 12.8889 6.60104 13.1753 6.23783 13.4854C6.21203 13.5074 6.18576 13.5295 6.15971 13.5518C5.83077 13.8329 5.48331 14.1307 5.15287 14.3604C4.81442 14.5955 4.39486 14.8329 3.96244 14.833C3.77312 14.833 3.57458 14.8009 3.38725 14.7051C3.1967 14.6075 3.04954 14.4609 2.939 14.2842C2.73342 13.9553 2.6407 13.4973 2.58646 12.958C2.49555 12.0539 2.49786 10.6677 2.5015 8.65137C2.50227 8.22503 2.50248 7.77021 2.50248 7.28613C2.50248 6.0318 2.54709 5.01924 2.689 4.21289C2.8312 3.40507 3.08005 2.75309 3.52592 2.26465C3.97706 1.77064 4.57772 1.50065 5.30619 1.35156C6.02571 1.20436 6.9127 1.167 7.98002 1.16699ZM7.98002 2.16699C6.91867 2.167 6.11917 2.20662 5.50639 2.33203C4.90264 2.45559 4.52509 2.65365 4.2642 2.93945C3.99806 3.23104 3.80009 3.67167 3.67435 4.38574C3.54836 5.10155 3.50248 6.04156 3.50248 7.28613C3.50248 7.78195 3.50223 8.24377 3.5015 8.67383C3.49808 10.6906 3.49533 12.0088 3.5806 12.8574C3.63319 13.3804 3.71369 13.6357 3.78764 13.7539C3.81667 13.8003 3.83605 13.8107 3.8433 13.8145C3.8539 13.8199 3.88576 13.833 3.96244 13.833C4.06165 13.8329 4.25784 13.764 4.58158 13.5391C4.86901 13.3393 5.18064 13.0738 5.52201 12.7822C5.54412 12.7633 5.56605 12.7437 5.58842 12.7246C5.94444 12.4207 6.33224 12.093 6.71342 11.8428C7.08266 11.6004 7.52318 11.377 7.98002 11.377C8.43683 11.377 8.87738 11.6004 9.24662 11.8428C9.62774 12.093 10.0156 12.4208 10.3716 12.7246C10.394 12.7437 10.4169 12.7633 10.439 12.7822C10.7803 13.0737 11.0911 13.3394 11.3785 13.5391C11.7026 13.7643 11.8994 13.833 11.9986 13.833C12.0746 13.833 12.106 13.8199 12.1167 13.8145C12.1239 13.8108 12.1442 13.8006 12.1734 13.7539C12.2473 13.6356 12.3269 13.3801 12.3794 12.8574C12.4647 12.0088 12.462 10.6906 12.4585 8.67383C12.4578 8.24377 12.4576 7.78195 12.4576 7.28613C12.4576 6.04156 12.4117 5.10155 12.2857 4.38574C12.1599 3.67164 11.962 3.23103 11.6958 2.93945C11.4349 2.65368 11.0574 2.45558 10.4537 2.33203C9.84087 2.20666 9.0413 2.16699 7.98002 2.16699ZM10.2652 5.64551C10.5412 5.64561 10.7652 5.86943 10.7652 6.14551C10.765 6.42141 10.5411 6.64541 10.2652 6.64551H5.69486C5.4189 6.64544 5.19507 6.42144 5.19486 6.14551C5.19486 5.86941 5.41878 5.64557 5.69486 5.64551H10.2652Z" fill="#71B1A1"/>
</svg>
