<svg width="17" height="17" viewBox="0 0 17 17" fill="none" xmlns="http://www.w3.org/2000/svg">
<g clip-path="url(#clip0_1_2422)">
<path d="M5.66667 4.08551C5.63902 4.05809 5.63902 4.05809 5.61138 4.03067C5.47317 3.89357 5.41789 3.83873 5.41789 3.72905C5.41789 3.59196 5.47317 3.56454 5.61138 3.42744C5.66667 3.3726 5.74959 3.29034 5.80488 3.23551C5.88781 3.12583 5.8878 2.98873 5.77724 2.90647C5.66667 2.82422 5.52846 2.82422 5.44553 2.93389C5.39024 2.98873 5.33496 3.04357 5.27968 3.09841C5.11382 3.26293 4.94797 3.42744 4.94797 3.75647C4.94797 4.08551 5.11382 4.25002 5.27968 4.41454C5.30732 4.44196 5.30732 4.44196 5.33496 4.46938C5.50081 4.60647 5.61138 4.71615 5.61138 4.96293C5.61138 5.23712 5.47317 5.40164 5.30732 5.56615C5.27968 5.59357 5.27967 5.59357 5.25203 5.62099C5.16911 5.73067 5.16911 5.86776 5.27968 5.95002C5.33496 5.97744 5.39024 6.00486 5.44553 6.00486C5.50081 6.00486 5.58374 5.97744 5.63902 5.9226C5.66667 5.89518 5.66667 5.89518 5.69431 5.86776C5.88781 5.67583 6.13659 5.40164 6.13659 4.93551C6.10894 4.46938 5.86016 4.25002 5.66667 4.08551Z" fill="#A9A9A9" stroke="#A9A9A9" stroke-width="0.2"/>
<path d="M9.03903 3.01614C9.01138 2.98872 9.01138 2.98872 8.98374 2.9613C8.84553 2.8242 8.79025 2.76937 8.79025 2.65969C8.79025 2.52259 8.84553 2.49517 8.98374 2.35808C9.03903 2.30324 9.12195 2.22098 9.17724 2.16614C9.26017 2.05646 9.26016 1.91937 9.1496 1.83711C9.03903 1.75485 8.90082 1.75485 8.81789 1.86453C8.7626 1.91937 8.70732 1.9742 8.65203 2.02904C8.48618 2.19356 8.32033 2.35808 8.32033 2.68711C8.32033 3.01614 8.48618 3.18066 8.65203 3.34517C8.67968 3.37259 8.67968 3.37259 8.70732 3.40001C8.87317 3.53711 8.98374 3.64679 8.98374 3.89356C8.98374 4.16775 8.84553 4.33227 8.67968 4.49678C8.65203 4.5242 8.65204 4.5242 8.62439 4.55162C8.54147 4.6613 8.54147 4.7984 8.65203 4.88066C8.70732 4.90808 8.7626 4.93549 8.81789 4.93549C8.87317 4.93549 8.9561 4.90808 9.01138 4.85324C9.03903 4.82582 9.03903 4.82582 9.06667 4.7984C9.26016 4.60646 9.50895 4.33227 9.50895 3.86614C9.4813 3.40001 9.23252 3.18066 9.03903 3.01614Z" fill="#A9A9A9" stroke="#A9A9A9" stroke-width="0.2"/>
<path d="M12.439 4.08551C12.4114 4.05809 12.4114 4.05809 12.3838 4.03067C12.2455 3.89357 12.1903 3.83873 12.1903 3.72905C12.1903 3.59196 12.2455 3.56454 12.3838 3.42744C12.439 3.3726 12.522 3.29034 12.5772 3.23551C12.6602 3.12583 12.6602 2.98873 12.5496 2.90647C12.439 2.82422 12.3008 2.82422 12.2179 2.93389C12.1626 2.98873 12.1073 3.04357 12.052 3.09841C11.8862 3.26293 11.7203 3.42744 11.7203 3.75647C11.7203 4.08551 11.8862 4.25002 12.052 4.41454C12.0797 4.44196 12.0797 4.44196 12.1073 4.46938C12.2732 4.60647 12.3838 4.71615 12.3838 4.96293C12.3838 5.23712 12.2455 5.40164 12.0797 5.56615C12.052 5.59357 12.052 5.59357 12.0244 5.62099C11.9415 5.73067 11.9415 5.86776 12.052 5.95002C12.1073 5.97744 12.1626 6.00486 12.2179 6.00486C12.2732 6.00486 12.3561 5.97744 12.4114 5.9226C12.439 5.89518 12.439 5.89518 12.4667 5.86776C12.6602 5.67583 12.909 5.40164 12.909 4.93551C12.8537 4.46938 12.6049 4.25002 12.439 4.08551Z" fill="#A9A9A9" stroke="#A9A9A9" stroke-width="0.2"/>
<path d="M16.8065 14.0661H0.995118C0.856907 14.0661 0.746338 14.1758 0.746338 14.3129V14.8887C0.746338 15.5194 1.27154 16.0403 1.90731 16.0403H15.8943C16.5301 16.0403 17.0553 15.5194 17.0553 14.8887V14.3129C17.0553 14.1758 16.9447 14.0661 16.8065 14.0661ZM16.5577 14.8887C16.5577 15.2726 16.2537 15.5742 15.8667 15.5742H1.90731C1.52032 15.5742 1.21626 15.2726 1.21626 14.8887V14.5597H16.5577V14.8887Z" fill="#A9A9A9" stroke="#A9A9A9" stroke-width="0.2"/>
<path d="M13.2959 8.9113C12.3285 7.97904 11.0846 7.40324 9.78537 7.2113L10.2553 6.74517C10.3935 6.60808 10.4488 6.38872 10.3659 6.19679C10.2829 6.00485 10.1171 5.89517 9.89594 5.89517H7.90569C7.7122 5.89517 7.5187 6.00485 7.43577 6.19679C7.35285 6.38872 7.40813 6.58066 7.54634 6.74517L8.01626 7.2113C6.68943 7.40324 5.47317 7.97904 4.47805 8.9113C3.28943 10.0355 2.59838 11.571 2.54309 13.1887C2.54309 13.3258 2.65366 13.4355 2.76423 13.4355C2.90244 13.4355 3.01301 13.3258 3.01301 13.2161C3.06829 11.7081 3.70407 10.3097 4.80976 9.26775C5.83252 8.28066 7.15935 7.73227 8.54147 7.65001C8.56911 7.65001 8.59675 7.65001 8.62439 7.65001C8.65203 7.65001 8.67968 7.65001 8.70732 7.65001C8.73496 7.65001 8.73496 7.65001 8.7626 7.65001C8.79025 7.65001 8.84553 7.65001 8.87317 7.65001C8.90081 7.65001 8.9561 7.65001 8.98374 7.65001C9.01138 7.65001 9.01138 7.65001 9.03903 7.65001C9.06667 7.65001 9.09431 7.65001 9.12195 7.65001C9.14959 7.65001 9.17724 7.65001 9.20488 7.65001C10.6146 7.73227 11.9138 8.28066 12.9366 9.26775C14.0423 10.3097 14.6781 11.7081 14.7333 13.2161C14.7333 13.3532 14.8439 13.4629 14.9821 13.4355C15.1203 13.4355 15.2309 13.3258 15.2033 13.1887C15.1756 11.5436 14.4846 10.0355 13.2959 8.9113ZM9.14959 7.15646H9.12195C9.09431 7.15646 9.06667 7.15646 9.03903 7.15646C8.98374 7.15646 8.9561 7.15646 8.90081 7.15646C8.84553 7.15646 8.81789 7.15646 8.7626 7.15646C8.73496 7.15646 8.70732 7.15646 8.67968 7.15646H8.65203L7.90569 6.41614H9.89594L9.14959 7.15646Z" fill="#A9A9A9" stroke="#A9A9A9" stroke-width="0.2"/>
</g>
<defs>
<clipPath id="clip0_1_2422">
<rect width="17" height="17" fill="white"/>
</clipPath>
</defs>
</svg>
