<svg width="20" height="20" viewBox="0 0 20 20" fill="none" xmlns="http://www.w3.org/2000/svg">
<path d="M18.3333 6.04167H13.3333C12.9917 6.04167 12.7083 5.75834 12.7083 5.41667C12.7083 5.07501 12.9917 4.79167 13.3333 4.79167H18.3333C18.675 4.79167 18.9583 5.07501 18.9583 5.41667C18.9583 5.75834 18.675 6.04167 18.3333 6.04167Z" fill="white"/>
<path d="M5 6.04167H1.66666C1.325 6.04167 1.04166 5.75834 1.04166 5.41667C1.04166 5.07501 1.325 4.79167 1.66666 4.79167H5C5.34166 4.79167 5.625 5.07501 5.625 5.41667C5.625 5.75834 5.34166 6.04167 5 6.04167Z" fill="white"/>
<path d="M8.33333 8.95833C6.38333 8.95833 4.79166 7.36667 4.79166 5.41667C4.79166 3.46667 6.38333 1.875 8.33333 1.875C10.2833 1.875 11.875 3.46667 11.875 5.41667C11.875 7.36667 10.2833 8.95833 8.33333 8.95833ZM8.33333 3.125C7.06666 3.125 6.04166 4.15 6.04166 5.41667C6.04166 6.68333 7.06666 7.70833 8.33333 7.70833C9.6 7.70833 10.625 6.68333 10.625 5.41667C10.625 4.15 9.6 3.125 8.33333 3.125Z" fill="white"/>
<path d="M18.3333 15.2083H15C14.6583 15.2083 14.375 14.925 14.375 14.5833C14.375 14.2417 14.6583 13.9583 15 13.9583H18.3333C18.675 13.9583 18.9583 14.2417 18.9583 14.5833C18.9583 14.925 18.675 15.2083 18.3333 15.2083Z" fill="white"/>
<path d="M6.66666 15.2083H1.66666C1.325 15.2083 1.04166 14.925 1.04166 14.5833C1.04166 14.2417 1.325 13.9583 1.66666 13.9583H6.66666C7.00833 13.9583 7.29166 14.2417 7.29166 14.5833C7.29166 14.925 7.00833 15.2083 6.66666 15.2083Z" fill="white"/>
<path d="M11.6667 18.125C9.71667 18.125 8.125 16.5333 8.125 14.5833C8.125 12.6333 9.71667 11.0417 11.6667 11.0417C13.6167 11.0417 15.2083 12.6333 15.2083 14.5833C15.2083 16.5333 13.6167 18.125 11.6667 18.125ZM11.6667 12.2917C10.4 12.2917 9.375 13.3167 9.375 14.5833C9.375 15.85 10.4 16.875 11.6667 16.875C12.9333 16.875 13.9583 15.85 13.9583 14.5833C13.9583 13.3167 12.9333 12.2917 11.6667 12.2917Z" fill="white"/>
</svg>
