<svg width="16" height="16" viewBox="0 0 16 16" fill="none" xmlns="http://www.w3.org/2000/svg">
<path d="M7.23196 2.58207C7.47408 1.80598 8.52571 1.80598 8.76703 2.58207L9.63061 5.35614C9.68337 5.52508 9.78593 5.67229 9.92363 5.77672C10.0613 5.88114 10.2271 5.93745 10.3973 5.93758H13.1914C13.9735 5.93758 14.298 6.98249 13.666 7.46281L11.4062 9.1768C11.2682 9.28131 11.1655 9.42876 11.1127 9.598C11.0599 9.76725 11.0598 9.94959 11.1124 10.1189L11.976 12.893C12.2181 13.6691 11.3666 14.3154 10.7331 13.8351L8.47325 12.1211C8.33541 12.0166 8.16943 11.9603 7.99909 11.9603C7.82875 11.9603 7.66277 12.0166 7.52493 12.1211L5.2651 13.8351C4.63235 14.3154 3.78169 13.6691 4.023 12.893L4.88658 10.1189C4.93918 9.94959 4.93909 9.76725 4.88631 9.598C4.83354 9.42876 4.73079 9.28131 4.5928 9.1768L2.33378 7.46365C1.70184 6.98333 2.02709 5.93842 2.80835 5.93842H5.60166C5.77199 5.93847 5.93797 5.88225 6.07583 5.77781C6.2137 5.67337 6.31639 5.52606 6.36919 5.35698L7.23277 2.58292L7.23196 2.58207Z" fill="#FFBA55"/>
</svg>
